<?xml version="1.0" encoding="utf-8"?>
<!-- Generator: Adobe Illustrator 25.3.1, SVG Export Plug-In . SVG Version: 6.00 Build 0)  -->
<svg version="1.1" xmlns="http://www.w3.org/2000/svg" xmlns:xlink="http://www.w3.org/1999/xlink" x="0px" y="0px"
	 viewBox="0 0 283.2 49.1" style="enable-background:new 0 0 283.2 49.1;" xml:space="preserve">
<style type="text/css">
	.st0{fill:#003042;}
	.st1{fill:#F07E2A;}
</style>
<g id="Laag_1">
</g>
<g id="Isolatiemodus">
	<g>
		<path class="st0" d="M3.5,45.6C1.2,43.2,0,39.7,0,35.2V13.1h10.1V35c0,2.3,0.6,4,1.7,5.1c1.1,1.1,2.8,1.6,5.2,1.6
			c1.7,0,3.3-0.3,4.7-1c1.5-0.7,2.7-1.5,3.8-2.6v-25h10.1v35.3h-9.3l-0.4-3.4c-3.4,2.7-7.6,4.1-12.4,4.1C9.1,49.1,5.8,48,3.5,45.6"
			/>
		<path class="st0" d="M44.1,13.1h9.3l0.4,3.4c1.6-1.2,3.5-2.2,5.7-2.9c2.2-0.8,4.4-1.2,6.8-1.2c4.6,0,8,1.1,10.2,3.2
			c2.2,2.2,3.2,5.5,3.2,10.2v22.6H69.6V26.3c0-2.4-0.5-4.1-1.5-5.1c-1-1-2.8-1.5-5.4-1.5c-1.5,0-3.1,0.3-4.6,1
			c-1.5,0.7-2.9,1.6-3.9,2.6v25H44.1V13.1z"/>
		<rect x="88.8" y="0" class="st1" width="10.1" height="9.8"/>
		<path class="st0" d="M132.1,39c1.4-1.8,2-4.7,2-8.6c0-3.9-0.7-6.6-2.1-8.3c-1.4-1.6-3.6-2.5-6.8-2.5c-1.6,0-3.1,0.2-4.4,0.7
			c-1.3,0.4-2.5,1.1-3.4,1.9v16.2c0.9,1,2.1,1.8,3.5,2.4c1.4,0.5,2.9,0.8,4.4,0.8C128.5,41.8,130.7,40.9,132.1,39 M121.8,48.2
			c-1.9-0.6-3.6-1.7-5.1-3.1l-0.5,3.3h-8.7V0l10.1,0v15c2.9-1.8,6.4-2.7,10.4-2.7c5.3,0,9.3,1.5,12.2,4.4c2.9,3,4.3,7.5,4.3,13.7
			c0,6.2-1.4,10.9-4.2,14c-2.8,3.1-6.8,4.7-11.9,4.7C125.8,49.1,123.6,48.8,121.8,48.2"/>
		<path class="st0" d="M174.1,38.4c1.4-1.5,2-4,2-7.6c0-3.6-0.7-6.1-2-7.6c-1.4-1.5-3.7-2.2-7-2.2c-3.2,0-5.5,0.7-6.9,2.2
			c-1.4,1.5-2,4-2,7.6c0,3.6,0.7,6.1,2,7.6c1.4,1.5,3.7,2.2,6.9,2.2C170.4,40.6,172.7,39.8,174.1,38.4 M148,30.8
			c0-6,1.6-10.5,4.7-13.7c3.2-3.2,8-4.7,14.4-4.7c6.5,0,11.3,1.6,14.4,4.7c3.2,3.2,4.8,7.7,4.8,13.7c0,12.3-6.4,18.4-19.2,18.4
			C154.4,49.1,148,43,148,30.8"/>
		<path class="st0" d="M195.1,45.6c-2.3-2.4-3.5-5.8-3.5-10.4V13.1h10.1V35c0,2.3,0.6,4,1.7,5.1c1.1,1.1,2.8,1.6,5.2,1.6
			c1.7,0,3.3-0.3,4.7-1c1.5-0.7,2.7-1.5,3.8-2.6v-25h10.1v35.3h-9.3l-0.4-3.4c-3.4,2.7-7.6,4.1-12.4,4.1
			C200.7,49.1,197.4,48,195.1,45.6"/>
		<polygon class="st0" points="232.3,13.1 242.4,13.1 247.7,36 253.6,17.6 253.6,13.1 261.3,13.1 268,36 273.2,13.1 283.2,13.1 
			273.9,48.4 264.7,48.4 257.9,27.8 251,48.4 241.6,48.4 		"/>
		<rect x="88.8" y="13.1" class="st0" width="10.1" height="35.3"/>
	</g>
</g>
</svg>
